<?xml version="1.0" encoding="utf-8"?>
<!-- Generator: Adobe Illustrator 23.0.6, SVG Export Plug-In . SVG Version: 6.00 Build 0)  -->
<svg version="1.1" id="Capa_1" xmlns="http://www.w3.org/2000/svg" xmlns:xlink="http://www.w3.org/1999/xlink" x="0px" y="0px"
	 viewBox="-505 506 489 489" style="enable-background:new -505 506 489 489;" xml:space="preserve">
<g>
	<path fill="#ffffff" d="M-64.9,928.7l-28-315.3c-0.6-7-6.5-12.3-13.4-12.3h-57.6c-0.8-52.6-43.8-95.1-96.6-95.1s-95.8,42.5-96.6,95.1h-57.6
		c-7,0-12.8,5.3-13.4,12.3l-28,315.3c0,0.4-0.1,0.8-0.1,1.2c0,35.9,32.9,65.1,73.4,65.1h244.6c40.5,0,73.4-29.2,73.4-65.1
		C-64.8,929.5-64.8,929.1-64.9,928.7z M-260.5,533c37.9,0,68.8,30.4,69.6,68.1h-139.2C-329.3,563.4-298.4,533-260.5,533z
		 M-138.2,968h-244.6c-25.4,0-46-16.8-46.4-37.5l26.8-302.3h45.2v41c0,7.5,6,13.5,13.5,13.5s13.5-6,13.5-13.5v-41h139.3v41
		c0,7.5,6,13.5,13.5,13.5s13.5-6,13.5-13.5v-41h45.2l26.9,302.3C-92.2,951.2-112.9,968-138.2,968z"/>
</g>
</svg>
