<?xml version="1.0" encoding="utf-8"?>
<!-- Generator: Adobe Illustrator 23.0.6, SVG Export Plug-In . SVG Version: 6.00 Build 0)  -->
<svg version="1.1" id="Capa_1" xmlns="http://www.w3.org/2000/svg" xmlns:xlink="http://www.w3.org/1999/xlink" x="0px" y="0px"
	 viewBox="-733 734.33 32.67 32.67" style="enable-background:new -733 734.33 32.67 32.67;" xml:space="preserve">
<style type="text/css">
	.st0{fill:#CE1348;}
</style>
<g>
	<path class="st0" d="M-704.81,750.84h-1.67c0-5.44-4.42-9.86-9.86-9.86l0-1.66C-709.98,739.31-704.81,744.48-704.81,750.84z
		 M-716.33,742.19l0,1.66c3.85,0,6.98,3.13,6.98,6.98l1.67,0C-707.69,746.07-711.56,742.19-716.33,742.19z M-716.67,734.33
		c-9.01,0-16.33,7.33-16.33,16.33c0,9.01,7.33,16.33,16.33,16.33c0.56,0,1.01-0.45,1.01-1.01c0-0.56-0.45-1.01-1.01-1.01
		c-7.9,0-14.32-6.42-14.32-14.32c0-7.9,6.42-14.32,14.32-14.32s14.32,6.42,14.32,14.32c0,3.3-1.76,6.57-4.27,7.95
		c-0.91,0.5-1.9,0.75-2.96,0.76c0.63-0.38,1.18-0.89,1.59-1.53c0.08-0.12,0.19-0.23,0.24-0.36c0.33-0.79,0.36-1.68,0.56-2.52
		c0.24-1.06-4.66-3.14-5.08-1.81c-0.15,0.49-0.39,2.05-0.7,2.46c-0.28,0.37-0.95,0.19-1.38-0.17c-1.12-0.95-2.36-2.35-3.46-3.46l0,0
		c-0.03-0.03-0.06-0.06-0.09-0.09c-0.03-0.03-0.06-0.06-0.09-0.09v0c-1.11-1.1-2.51-2.34-3.46-3.46c-0.36-0.42-0.53-1.1-0.17-1.38
		c0.41-0.31,1.97-0.54,2.46-0.7c1.33-0.42-0.75-5.33-1.82-5.08c-0.83,0.2-1.73,0.23-2.52,0.55c-0.13,0.06-0.24,0.16-0.36,0.24
		c-2.8,1.77-3.16,6.08-0.43,9.29c1.04,1.23,2.13,2.42,3.24,3.58l-0.01,0c0.03,0.03,0.06,0.06,0.09,0.09
		c0.03,0.03,0.06,0.06,0.09,0.1l0.01-0.01c1.16,1.12,2.54,2.77,4.77,4.26c4.7,3.14,8.31,2.26,10.44,1.1
		c3.67-2.02,5.31-6.34,5.31-9.72C-700.33,741.66-707.66,734.33-716.67,734.33z"/>
</g>
</svg>
